<svg id="e41trkycj4pl1" xmlns="http://www.w3.org/2000/svg" xmlns:xlink="http://www.w3.org/1999/xlink" viewBox="0 0 110 100.120000" shape-rendering="geometricPrecision" text-rendering="geometricPrecision"><style><![CDATA[#e41trkycj4pl81_to {animation: e41trkycj4pl81_to__to 4000ms linear infinite normal forwards}@keyframes e41trkycj4pl81_to__to { 0% {transform: translate(23.119970px,91.614421px)} 10% {transform: translate(23.119970px,91.614421px);animation-timing-function: cubic-bezier(0.420000,0,1,1)} 20% {transform: translate(23.119970px,87.614421px);animation-timing-function: cubic-bezier(0,0,0.580000,1)} 32.500000% {transform: translate(23.119970px,91.614421px)} 100% {transform: translate(23.119970px,91.614421px)} }#e41trkycj4pl111 {animation: e41trkycj4pl111_s_do 4000ms linear infinite normal forwards}@keyframes e41trkycj4pl111_s_do { 0% {stroke-dashoffset: 14} 10% {stroke-dashoffset: 14;animation-timing-function: cubic-bezier(0.420000,0,1,1)} 22.500000% {stroke-dashoffset: 0} 27.500000% {stroke-dashoffset: 0} 35% {stroke-dashoffset: -14} 100% {stroke-dashoffset: -14} }#e41trkycj4pl112 {animation: e41trkycj4pl112_s_do 4000ms linear infinite normal forwards}@keyframes e41trkycj4pl112_s_do { 0% {stroke-dashoffset: 14} 10% {stroke-dashoffset: 14;animation-timing-function: cubic-bezier(0.420000,0,1,1)} 22.500000% {stroke-dashoffset: 0} 27.500000% {stroke-dashoffset: 0} 35% {stroke-dashoffset: -14} 100% {stroke-dashoffset: -14} }#e41trkycj4pl113 {animation: e41trkycj4pl113_s_do 4000ms linear infinite normal forwards}@keyframes e41trkycj4pl113_s_do { 0% {stroke-dashoffset: 9} 10% {stroke-dashoffset: 9;animation-timing-function: cubic-bezier(0.420000,0,1,1)} 22.500000% {stroke-dashoffset: 0} 27.500000% {stroke-dashoffset: 0;animation-timing-function: cubic-bezier(0,0,0.580000,1)} 35% {stroke-dashoffset: -9} 100% {stroke-dashoffset: -9} }#e41trkycj4pl114 {animation: e41trkycj4pl114_s_do 4000ms linear infinite normal forwards}@keyframes e41trkycj4pl114_s_do { 0% {stroke-dashoffset: 9} 10% {stroke-dashoffset: 9;animation-timing-function: cubic-bezier(0.420000,0,1,1)} 22.500000% {stroke-dashoffset: 0} 27.500000% {stroke-dashoffset: 0} 35% {stroke-dashoffset: -9} 100% {stroke-dashoffset: -9} }#e41trkycj4pl115 {animation: e41trkycj4pl115_f_o 4000ms linear infinite normal forwards}@keyframes e41trkycj4pl115_f_o { 0% {fill-opacity: 0} 10% {fill-opacity: 0;animation-timing-function: cubic-bezier(0.420000,0,1,1)} 20% {fill-opacity: 1} 25% {fill-opacity: 1;animation-timing-function: cubic-bezier(0,0,0.580000,1)} 32.500000% {fill-opacity: 0} 100% {fill-opacity: 0} }#e41trkycj4pl116 {animation: e41trkycj4pl116_f_o 4000ms linear infinite normal forwards}@keyframes e41trkycj4pl116_f_o { 0% {fill-opacity: 0} 10% {fill-opacity: 0;animation-timing-function: cubic-bezier(0.420000,0,1,1)} 20% {fill-opacity: 1} 25% {fill-opacity: 1;animation-timing-function: cubic-bezier(0,0,0.580000,1)} 32.500000% {fill-opacity: 0} 100% {fill-opacity: 0} }#e41trkycj4pl135_tr {animation: e41trkycj4pl135_tr__tr 4000ms linear infinite normal forwards}@keyframes e41trkycj4pl135_tr__tr { 0% {transform: translate(85.277129px,84.599781px) rotate(0deg);animation-timing-function: cubic-bezier(0.420000,0,1,1)} 10% {transform: translate(85.277129px,84.599781px) rotate(-4deg)} 22.500000% {transform: translate(85.277129px,84.599781px) rotate(4deg)} 35% {transform: translate(85.277129px,84.599781px) rotate(-3deg);animation-timing-function: cubic-bezier(0,0,0.580000,1)} 45% {transform: translate(85.277129px,84.599781px) rotate(0deg)} 100% {transform: translate(85.277129px,84.599781px) rotate(0deg)} }]]></style><rect id="e41trkycj4pl2" width="110" height="100" rx="0" ry="0" fill="none" stroke="none" stroke-width="1"/><g id="e41trkycj4pl3"><g id="e41trkycj4pl4"><g id="e41trkycj4pl5"><g id="e41trkycj4pl6"><path id="e41trkycj4pl7" d="M19.510000,30.300000C15.800000,37.930000,14,51,15.930000,60.570000C18.060000,71,12.330000,74,13.780000,81C15.780000,87.130000,21.100000,91.530000,29.870000,92C38.640000,92.470000,51.600000,91.150000,62.110000,93.610000C72.620000,96.070000,81.310000,88.960000,82.110000,83.100000C82.910000,77.240000,79.830000,77.370000,78.820000,68.580000C78.350000,64.320000,79.410000,51.950000,79.740000,46.580000C80.048647,42.249247,79.221371,37.912943,77.340000,34C75.060000,28.920000,69.880000,19.080000,58.050000,15.640000C43.360000,10.590000,26.450000,16.050000,19.510000,30.300000Z" fill="rgb(76,84,90)" stroke="none" stroke-width="1"/></g></g><g id="e41trkycj4pl8" clip-path="url(#e41trkycj4pl17)"><g id="e41trkycj4pl9"><g id="e41trkycj4pl10"><g id="e41trkycj4pl11"><g id="e41trkycj4pl12"><g id="e41trkycj4pl13" opacity="0.2"><g id="e41trkycj4pl14"><g id="e41trkycj4pl15"><path id="e41trkycj4pl16" d="M25.910000,50.850000C25.910000,50.850000,26.610000,66.470000,23.350000,74.350000C20.090000,82.230000,19,88.780000,32.170000,94C45.340000,99.220000,65.590000,96.880000,68.360000,95.660000C71.130000,94.440000,79.360000,86.660000,73.140000,78.300000C66.920000,69.940000,69.770000,52.820000,69.770000,52.820000Z" fill="rgb(0,0,0)" stroke="none" stroke-width="1"/></g></g></g></g></g></g></g><clipPath id="e41trkycj4pl17"><path id="e41trkycj4pl18" d="M19.510000,30.300000C15.800000,37.930000,14,51,15.930000,60.570000C18.060000,71,12.330000,74,13.780000,81C15.780000,87.130000,21.100000,91.530000,29.870000,92C38.640000,92.470000,51.600000,91.150000,62.110000,93.610000C72.620000,96.070000,81.310000,88.960000,82.110000,83.100000C82.910000,77.240000,79.830000,77.370000,78.820000,68.580000C78.040000,61.400000,79.460000,48.580000,79.720000,43.150000C79.980000,37.720000,73.910000,19.940000,58.330000,15.400000C43.670000,10.400000,26.450000,16.050000,19.510000,30.300000Z" fill="none" stroke="none" stroke-width="1"/></clipPath></g><g id="e41trkycj4pl19"><g id="e41trkycj4pl20"><path id="e41trkycj4pl21" d="M37.870000,90.940000L48.200000,90.940000L48.200000,97.850000C48.200024,98.481243,47.691219,98.994511,47.060000,99L37.870000,99C37.238781,98.994511,36.729976,98.481243,36.730000,97.850000L36.730000,97.850000L36.730000,92.110000C36.746265,91.492141,37.251927,90.999786,37.870000,91Z" fill="rgb(29,29,29)" stroke="none" stroke-width="1"/></g></g><g id="e41trkycj4pl22"><g id="e41trkycj4pl23"><path id="e41trkycj4pl24" d="M48.160000,90.940000L58.490000,90.940000C58.792347,90.940000,59.082310,91.060107,59.296102,91.273898C59.509893,91.487690,59.630000,91.777653,59.630000,92.080000L59.630000,92.080000L59.630000,97.850000C59.630024,98.481243,59.121219,98.994511,58.490000,99L49.300000,99C48.668781,98.994511,48.159976,98.481243,48.160000,97.850000L48.160000,97.850000Z" fill="rgb(29,29,29)" stroke="none" stroke-width="1"/></g></g><g id="e41trkycj4pl25"><g id="e41trkycj4pl26"><path id="e41trkycj4pl27" d="M62.770000,83.380000L65.310000,82L65.310000,82L68.230000,87.570000C68.980456,88.956892,68.471398,90.689478,67.090000,91.450000L67.090000,91.450000C65.700483,92.198869,63.967030,91.685088,63.210000,90.300000L61.580000,87.220000C60.842571,85.824962,61.369668,84.096263,62.760000,83.350000Z" fill="rgb(253,223,188)" stroke="none" stroke-width="1"/></g><g id="e41trkycj4pl28"><path id="e41trkycj4pl29" d="M61.350000,72.060000C61.350000,72.060000,69.240000,81.700000,68.610000,83.060000C67.980000,84.420000,62.170000,87.920000,60.610000,88.560000C59.050000,89.200000,58,72.640000,59.180000,72.070000C59.860440,71.721175,60.666374,71.717461,61.350000,72.060000Z" fill="rgb(1,159,222)" stroke="none" stroke-width="1"/></g></g><g id="e41trkycj4pl30"><g id="e41trkycj4pl31"><path id="e41trkycj4pl32" d="M38.460000,71.430000L58,71.430000C59.774102,71.321076,61.306614,72.657570,61.440000,74.430000L63.740000,92.430000C63.601432,94.199830,62.072230,95.533436,60.300000,95.430000L36.160000,95.430000C34.385898,95.538924,32.853386,94.202430,32.720000,92.430000L35,74.430000C35.122836,72.652305,36.662118,71.309908,38.440000,71.430000Z" fill="rgb(1,159,222)" stroke="none" stroke-width="1"/></g></g><g id="e41trkycj4pl33"><g id="e41trkycj4pl34"><path id="e41trkycj4pl35" d="M35.080000,72.060000C35.080000,72.060000,27.180000,81.700000,27.810000,83.060000C28.440000,84.420000,34.210000,87.900000,35.810000,88.560000C37.410000,89.220000,38.400000,72.690000,37.240000,72.120000C36.569397,71.761819,35.769453,71.739598,35.080000,72.060000Z" fill="rgb(1,159,222)" stroke="none" stroke-width="1"/></g></g><g id="e41trkycj4pl36"><ellipse id="e41trkycj4pl37" rx="7.460000" ry="3.440000" transform="matrix(1 0 0 1 48.18000000000000 76.02000000000000)" fill="rgb(255,255,255)" stroke="none" stroke-width="1"/></g><g id="e41trkycj4pl38"><path id="e41trkycj4pl39" d="M53.360000,77.550000C53.360000,77.550000,53,79.850000,52.210000,80.450000C51.420000,81.050000,54.500000,81.590000,55.400000,81.330000C56.300000,81.070000,55.110000,77.200000,55.110000,77.200000Z" fill="rgb(255,255,255)" stroke="none" stroke-width="1"/></g><g id="e41trkycj4pl40"><g id="e41trkycj4pl41"><g id="e41trkycj4pl42"><path id="e41trkycj4pl43" d="M47.640000,27.060000C62.493076,27.142518,74.490229,39.206695,74.490000,54.060000C74.490000,68.980000,62.490000,77.920000,47.640000,77.920000C32.790000,77.920000,20.710000,69,20.710000,54.070000C20.709898,39.197277,32.737379,27.125084,47.610000,27.070000Z" fill="rgb(253,223,188)" stroke="none" stroke-width="1"/></g></g><g id="e41trkycj4pl44" opacity="0.6"><g id="e41trkycj4pl45"><path id="e41trkycj4pl46" d="M47.530000,77.930000C44.260995,77.948867,41.006725,77.490708,37.870000,76.570000C39.168628,76.710024,40.473845,76.780126,41.780000,76.780000C48.689506,76.958348,55.444609,74.719615,60.880000,70.450000C63.312255,68.415987,65.268299,65.872789,66.610000,63C68.041274,59.862054,68.768290,56.448833,68.740000,53C68.777449,41.204089,61.152994,30.749314,49.910000,27.180000C63.827157,28.432430,74.489312,40.096602,74.490000,54.070000C74.521752,57.518120,73.798141,60.931377,72.370000,64.070000C71.029379,66.960418,69.069811,69.520829,66.630000,71.570000C61.203139,75.858645,54.444565,78.109144,47.530000,77.930000Z" fill="rgb(255,213,163)" stroke="none" stroke-width="1"/></g></g><g id="e41trkycj4pl47"><g id="e41trkycj4pl48"><path id="e41trkycj4pl49" d="M35.080000,56.900000L35.080000,56.900000C36.340204,56.910864,37.359136,57.929796,37.370000,59.190000L37.370000,61.490000C37.359136,62.750204,36.340204,63.769136,35.080000,63.780000L35.080000,63.780000C33.813640,63.780012,32.785506,62.756348,32.780000,61.490000L32.780000,59.190000C32.785506,57.923652,33.813640,56.899988,35.080000,56.900000Z" fill="rgb(76,84,90)" stroke="none" stroke-width="1"/></g></g><g id="e41trkycj4pl50"><g id="e41trkycj4pl51"><path id="e41trkycj4pl52" d="M60.210000,56.900000L60.210000,56.900000C61.470204,56.910864,62.489136,57.929796,62.500000,59.190000L62.500000,61.490000C62.489136,62.750204,61.470204,63.769136,60.210000,63.780000L60.210000,63.780000C58.943640,63.780012,57.915506,62.756348,57.910000,61.490000L57.910000,59.190000C57.915506,57.923652,58.943640,56.899988,60.210000,56.900000Z" fill="rgb(76,84,90)" stroke="none" stroke-width="1"/></g></g><g id="e41trkycj4pl53"><g id="e41trkycj4pl54"><path id="e41trkycj4pl55" d="M47.450000,69.410000C46.474194,69.379279,45.516185,69.140629,44.640000,68.710000C44.126375,68.464233,43.909233,67.848625,44.155000,67.335000C44.400767,66.821375,45.016375,66.604233,45.530000,66.850000C46.131248,67.149909,46.788763,67.320249,47.460000,67.350000C48.067443,67.300504,48.658947,67.130532,49.200000,66.850000C49.429309,66.715626,49.702677,66.678065,49.959730,66.745611C50.216783,66.813158,50.436372,66.980256,50.570000,67.210000L50.570000,67.210000L50.570000,67.270000C50.704374,67.499309,50.741935,67.772677,50.674389,68.029730C50.606842,68.286783,50.439744,68.506372,50.210000,68.640000L50.140000,68.640000C49.311610,69.093171,48.392709,69.356202,47.450000,69.410000Z" fill="rgb(76,84,90)" stroke="none" stroke-width="1"/></g></g><g id="e41trkycj4pl56"><g id="e41trkycj4pl57"><path id="e41trkycj4pl58" d="M21.070000,49.280000C21.070000,49.280000,32,46.160000,36.890000,40.410000C41.780000,34.660000,44.660000,37.670000,47,39C49.340000,40.330000,55,45.440000,62.280000,48.730000C66.304608,50.673445,70.710835,51.698149,75.180000,51.730000C79.650000,51.730000,75.530000,36.460000,66.620000,30.830000C57.710000,25.200000,39.060000,20.390000,29.430000,30.830000C19.800000,41.270000,21.070000,49.280000,21.070000,49.280000Z" fill="rgb(76,84,90)" stroke="none" stroke-width="1"/></g></g><g id="e41trkycj4pl59"><path id="e41trkycj4pl60" d="M68.400000,37.390000C68.135064,36.151907,66.919300,35.360766,65.680000,35.620000L65.680000,35.620000L61.760000,36.460000L60.940000,32.530000C60.663858,31.287359,59.432641,30.503858,58.190000,30.780000C56.947359,31.056142,56.163858,32.287359,56.440000,33.530000L57.710000,39.530000C58.018568,40.881384,59.353622,41.735819,60.710000,41.450000L66.710000,40.180000C67.948093,39.915064,68.739234,38.699300,68.480000,37.460000L68.480000,37.460000Z" fill="rgb(1,159,222)" stroke="none" stroke-width="1"/></g><g id="e41trkycj4pl61"><circle id="e41trkycj4pl62" r="2.300000" transform="matrix(1 0 0 1 56.74000000000000 45.04000000000000)" fill="rgb(1,159,222)" stroke="none" stroke-width="1"/></g></g><g id="e41trkycj4pl63"><path id="e41trkycj4pl64" d="M53.890000,90.940000L53.890000,90.940000C55.104692,90.937345,56.270689,91.417335,57.131481,92.274377C57.992274,93.131419,58.477351,94.295308,58.480000,95.510000L58.480000,95.510000L58.480000,96.670000C58.482656,97.582346,58.122773,98.458379,57.479523,99.105381C56.836272,99.752382,55.962346,100.117352,55.050000,100.120000L52.750000,100.120000C51.837654,100.122656,50.961621,99.762773,50.314619,99.119523C49.667618,98.476272,49.302648,97.602346,49.300000,96.690000L49.300000,96.690000L49.300000,96.690000L49.300000,95.530000C49.310954,92.999564,51.359564,90.950954,53.890000,90.940000Z" fill="rgb(253,91,115)" stroke="none" stroke-width="1"/></g><g id="e41trkycj4pl65"><path id="e41trkycj4pl66" d="M42.460000,90.940000L42.460000,90.940000C43.674692,90.937345,44.840689,91.417335,45.701481,92.274377C46.562274,93.131419,47.047351,94.295308,47.050000,95.510000L47.050000,95.510000L47.050000,96.670000C47.050008,98.571484,45.511476,100.114488,43.610000,100.120000L41.320000,100.120000C40.407654,100.122656,39.531621,99.762773,38.884619,99.119523C38.237618,98.476272,37.872648,97.602346,37.870000,96.690000L37.870000,96.690000L37.870000,96.690000L37.870000,95.530000C37.880954,92.999564,39.929564,90.950954,42.460000,90.940000Z" fill="rgb(253,91,115)" stroke="none" stroke-width="1"/></g><g id="e41trkycj4pl67"><g id="e41trkycj4pl68"><g id="e41trkycj4pl69"><path id="e41trkycj4pl70" d="M20.140000,54.530000C19.273788,54.251219,18.328575,54.592318,17.840000,55.360000C16.990000,56.720000,17.370000,60.500000,19.690000,62.600000C22.010000,64.700000,24.050000,63.750000,24.050000,63.750000C24.050000,63.750000,21.870000,55.420000,21.260000,55.190000C20.850822,55.037444,20.471701,54.814033,20.140000,54.530000Z" fill="rgb(253,223,188)" stroke="none" stroke-width="1"/></g></g><g id="e41trkycj4pl71"><g id="e41trkycj4pl72"><path id="e41trkycj4pl73" d="M75.060000,55.230000C75.921183,54.931440,76.874077,55.272651,77.350000,56.050000C78.200000,57.420000,77.840000,61.200000,75.510000,63.300000C73.180000,65.400000,71.140000,64.450000,71.140000,64.450000C71.140000,64.450000,73.330000,56.130000,73.940000,55.900000C74.346636,55.737745,74.724735,55.511561,75.060000,55.230000Z" fill="rgb(254,217,173)" stroke="none" stroke-width="1"/></g></g><g id="e41trkycj4pl74"><g id="e41trkycj4pl75"><path id="e41trkycj4pl76" d="M21,47.900000C21,47.900000,19.050000,60.900000,24.250000,70.410000C29.450000,79.920000,33.530000,79.590000,33.530000,79.590000C33.530000,79.590000,20.200000,70.080000,25.050000,53.520000C29.900000,36.960000,22.050000,45.850000,22.050000,45.850000Z" fill="rgb(76,84,90)" stroke="none" stroke-width="1"/></g></g><g id="e41trkycj4pl77"><g id="e41trkycj4pl78"><path id="e41trkycj4pl79" d="M74.270000,47.900000C74.270000,47.900000,76.210000,60.900000,71.020000,70.410000C65.830000,79.920000,61.750000,79.590000,61.750000,79.590000C61.750000,79.590000,75.060000,70.080000,70.220000,53.520000C65.380000,36.960000,73.220000,45.860000,73.220000,45.860000Z" fill="rgb(76,84,90)" stroke="none" stroke-width="1"/></g></g></g></g></g><g id="e41trkycj4pl80"><g id="e41trkycj4pl81_to" transform="translate(23.119970,91.614421)"><g id="e41trkycj4pl81" transform="translate(-23.119970,-90.614421)"><g id="e41trkycj4pl82"><g id="e41trkycj4pl83"><g id="e41trkycj4pl84"><g id="e41trkycj4pl85"><g id="e41trkycj4pl86"><path id="e41trkycj4pl87" d="M16.530000,80.650000L22.530000,83.110000L27.990000,76.110000L30.660000,66.540000L22.530000,72.540000Z" fill="rgb(255,255,255)" fill-rule="evenodd" stroke="none" stroke-width="1"/></g><g id="e41trkycj4pl88"><path id="e41trkycj4pl89" d="M30.640000,66.540000L22.520000,83.120000L26.200000,84.620000L32.020000,77.620000L33.930000,68.620000L32.400000,64.760000Z" fill="rgb(255,91,115)" fill-rule="evenodd" stroke="none" stroke-width="1"/></g><g id="e41trkycj4pl90"><path id="e41trkycj4pl91" d="M26.200000,84.630000L32.420000,87.190000L36.420000,83.590000L37.420000,76.970000L34,68.670000Z" fill="rgb(255,255,255)" fill-rule="evenodd" stroke="none" stroke-width="1"/></g><g id="e41trkycj4pl92"><path id="e41trkycj4pl93" d="M32.420000,87.190000L36.110000,88.700000L38.780000,86.180000L39.500000,81.900000L37.430000,77Z" fill="rgb(255,91,115)" fill-rule="evenodd" stroke="none" stroke-width="1"/></g><g id="e41trkycj4pl94"><path id="e41trkycj4pl95" d="M36.110000,88.700000L41.230000,90.810000C42.230000,91.150000,42.740000,91.100000,42.780000,90.510000L42.780000,90.400000C42.744866,90.059396,42.671057,89.723901,42.560000,89.400000L39.450000,81.900000Z" fill="rgb(255,255,255)" fill-rule="evenodd" stroke="none" stroke-width="1"/></g><g id="e41trkycj4pl96" opacity="0.1"><path id="e41trkycj4pl97" d="M42.560000,89.450000L39.450000,81.900000L38.110000,84.650000L40.520000,90.500000L41.230000,90.790000C42.230000,91.130000,42.740000,91.070000,42.780000,90.500000L42.780000,90.390000C42.746106,90.049197,42.672266,89.713561,42.560000,89.390000Z" fill="rgb(0,0,0)" fill-rule="evenodd" stroke="none" stroke-width="1"/></g><g id="e41trkycj4pl98"><path id="e41trkycj4pl99" d="M39.450000,81.900000L37.450000,76.970000L36.100000,79.720000L37.680000,83.660000L38.080000,84.660000Z" fill="rgb(216,76,97)" fill-rule="evenodd" stroke="none" stroke-width="1"/></g><g id="e41trkycj4pl100" opacity="0.1"><path id="e41trkycj4pl101" d="M37.430000,77L34.050000,68.700000L32.670000,71.470000L35.670000,78.780000L36.080000,79.780000Z" fill="rgb(0,0,0)" fill-rule="evenodd" stroke="none" stroke-width="1"/></g><g id="e41trkycj4pl102"><path id="e41trkycj4pl103" d="M34,68.690000L32.400000,64.760000L30.890000,66.350000L30.700000,66.540000L32.310000,70.460000L32.730000,71.460000Z" fill="rgb(216,76,97)" fill-rule="evenodd" stroke="none" stroke-width="1"/></g><g id="e41trkycj4pl104"><path id="e41trkycj4pl105" d="M16.530000,80.650000L30.640000,66.540000L32.400000,64.760000L32.590000,64.580000C33.108917,64.057099,33.108416,63.213373,32.588880,62.691088C32.069344,62.168803,31.225632,62.163850,30.700000,62.680000L14.460000,78.920000C13.938888,79.446140,13.938888,80.293860,14.460000,80.820000C14.705966,81.067938,15.040754,81.207395,15.390000,81.207395C15.739246,81.207395,16.074034,81.067938,16.320000,80.820000L16.400000,80.820000Z" fill="rgb(25,159,222)" fill-rule="evenodd" stroke="none" stroke-width="1"/></g><g id="e41trkycj4pl106"><path id="e41trkycj4pl107" d="M32.590000,62.700000C32.062920,62.190729,31.227080,62.190729,30.700000,62.700000L28.940000,64.450000C29.464671,63.911522,30.326522,63.900329,30.865000,64.425000C31.403478,64.949671,31.414671,65.811522,30.890000,66.350000L32.400000,64.760000L32.590000,64.580000C33.087808,64.052195,33.087808,63.227805,32.590000,62.700000Z" fill="rgb(26,132,181)" fill-rule="evenodd" stroke="none" stroke-width="1"/></g></g><circle id="e41trkycj4pl108" r="3.950000" transform="matrix(1 0 0 1 31.42000000000000 85.20999999999999)" fill="rgb(253,223,188)" stroke="none" stroke-width="1"/></g></g></g><g id="e41trkycj4pl109"><g id="e41trkycj4pl110"><path id="e41trkycj4pl111" d="M25.830000,64.070000C25.431302,63.784140,25.053663,63.469997,24.700000,63.130000C21.829588,60.429289,20.268724,56.618302,20.420000,52.680000" fill="none" stroke="rgb(255,255,255)" stroke-width="2" stroke-linecap="round" stroke-dashoffset="14" stroke-dasharray="14"/><path id="e41trkycj4pl112" d="M15.260000,69C14.971612,68.603262,14.657610,68.225792,14.320000,67.870000C11.625358,64.955242,7.785938,63.371938,3.820000,63.540000" fill="none" stroke="rgb(255,255,255)" stroke-width="2" stroke-linecap="round" stroke-dashoffset="14" stroke-dasharray="14"/><path id="e41trkycj4pl113" d="M13.670000,73.780000C13.414807,73.547389,13.140508,73.336646,12.850000,73.150000C10.619984,71.824341,7.926385,71.525458,5.460000,72.330000" fill="none" stroke="rgb(248,228,124)" stroke-width="2" stroke-linecap="round" stroke-dashoffset="9" stroke-dasharray="9"/><path id="e41trkycj4pl114" d="M20.380000,66.630000C20.097717,66.452468,19.833165,66.248194,19.590000,66.020000C17.700639,64.233860,16.676030,61.717916,16.780000,59.120000" fill="none" stroke="rgb(248,228,124)" stroke-width="2" stroke-linecap="round" stroke-dashoffset="9" stroke-dasharray="9"/><path id="e41trkycj4pl115" d="M3.820000,78.380000C3.809412,79.700128,4.867017,80.780948,6.187064,80.799023C7.507111,80.817098,8.593912,79.765640,8.619473,78.445717C8.645034,77.125793,7.599757,76.033047,6.280000,76L6.190000,76C4.886229,76.021543,3.836054,77.076150,3.820000,78.380000Z" fill="rgb(255,255,255)" fill-opacity="0" fill-rule="evenodd" stroke="none" stroke-width="1"/><path id="e41trkycj4pl116" d="M7.890000,57.550000L5.890000,56.550000C5.610000,56.420000,5.610000,56.320000,5.890000,56.170000L7.940000,55.170000L8.940000,53.110000C9.080000,52.840000,9.180000,52.840000,9.330000,53.110000L10.330000,55.170000L12.400000,56.170000C12.670000,56.310000,12.670000,56.410000,12.400000,56.550000L10.400000,57.550000L9.330000,59.600000C9.190000,59.880000,9.080000,59.880000,8.940000,59.600000Z" fill="rgb(248,228,124)" fill-opacity="0" fill-rule="evenodd" stroke="none" stroke-width="1"/></g></g></g></g></g><g id="e41trkycj4pl117"><g id="e41trkycj4pl118"><g id="e41trkycj4pl119"><g id="e41trkycj4pl120"><path id="e41trkycj4pl121" d="M74,77.650000L71.920000,85.650000C71.920000,85.650000,69.330000,97.650000,76.760000,98.790000C79.190000,99.140000,85.590000,99.160000,88.450000,99.160000C93.030000,99.160000,90.580000,99.890000,94.110000,98.790000C97.640000,97.690000,97.770000,92,97.640000,86.390000C97.640000,84.670000,95.120000,77.610000,95.120000,77.610000Z" fill="rgb(163,216,242)" stroke="none" stroke-width="1"/></g><g id="e41trkycj4pl122"><path id="e41trkycj4pl123" d="M90.640000,98.390000C92.416481,98.279594,94.136315,97.722368,95.640000,96.770000C97.520000,95.320000,97.740000,93.580000,98.160000,92.600000C98.750000,91.460000,99.800000,90.130000,101.330000,90.390000C102.860000,90.650000,103.600000,92.480000,102.330000,94.860000C101.060000,97.240000,95.740000,100.200000,90.330000,99.420000C84.920000,98.640000,90.640000,98.390000,90.640000,98.390000Z" fill="rgb(163,216,242)" stroke="none" stroke-width="1"/><g id="e41trkycj4pl124" clip-path="url(#e41trkycj4pl128)"><g id="e41trkycj4pl125"><g id="e41trkycj4pl126"><path id="e41trkycj4pl127" d="M90.640000,98.390000C92.416481,98.279594,94.136315,97.722368,95.640000,96.770000C97.520000,95.320000,97.740000,93.580000,98.160000,92.600000C98.750000,91.460000,99.800000,90.130000,101.330000,90.390000C102.860000,90.650000,103.600000,92.480000,102.330000,94.860000C101.060000,97.240000,95.740000,100.200000,90.330000,99.420000C84.920000,98.640000,90.640000,98.390000,90.640000,98.390000Z" fill="rgb(1,159,222)" stroke="none" stroke-width="1"/></g></g><clipPath id="e41trkycj4pl128"><path id="e41trkycj4pl129" d="M97.120000,91.710000C99.256060,91.673528,101.234415,92.830461,102.250000,94.710000C103.790000,97.860000,103.870000,89.530000,103.870000,89.530000L100,87.900000Z" fill="none" stroke="none" stroke-width="1"/></clipPath></g></g><path id="e41trkycj4pl130" d="M86.700000,83.630000C90.760000,83.630000,94.050000,87.760000,94.050000,92.850000C94.050000,97.940000,90.760000,98.580000,86.700000,98.580000C82.640000,98.580000,79.350000,97.950000,79.350000,92.850000C79.350000,87.750000,82.640000,83.630000,86.700000,83.630000Z" fill="rgb(255,255,255)" stroke="none" stroke-width="1"/><path id="e41trkycj4pl131" d="M81.480000,90.800000C77.070000,91.560000,74.190000,87.070000,74.890000,85.700000C75.590000,84.330000,81.320000,86.420000,81.320000,86.420000C81.320000,86.420000,84.430000,90.290000,81.480000,90.800000Z" opacity="0.1" fill="rgb(0,0,0)" stroke="none" stroke-width="1"/><path id="e41trkycj4pl132" d="M81.330000,90.590000C77.200000,90.980000,74.240000,86.590000,74.940000,85.190000C75.640000,83.790000,81.330000,85.320000,81.330000,85.320000C81.330000,85.320000,85.460000,90.210000,81.330000,90.590000Z" fill="rgb(163,216,242)" stroke="none" stroke-width="1"/><path id="e41trkycj4pl133" d="M96.570000,86.780000C95,90.180000,89.910000,89.860000,89,88.720000C88.090000,87.580000,92,84.510000,92,84.510000C92,84.510000,98.100000,83.380000,96.570000,86.780000Z" opacity="0.1" fill="rgb(0,0,0)" stroke="none" stroke-width="1"/><path id="e41trkycj4pl134" d="M96.570000,86.070000C95,89.470000,89.850000,89.890000,89,88.760000C88.150000,87.630000,92,83.760000,92,83.760000C92,83.760000,98.100000,82.670000,96.570000,86.070000Z" fill="rgb(163,216,242)" stroke="none" stroke-width="1"/></g><g id="e41trkycj4pl135_tr" transform="translate(85.277129,84.599781) rotate(0)"><g id="e41trkycj4pl135" transform="translate(-84.805182,-84.599781)"><g id="e41trkycj4pl136"><path id="e41trkycj4pl137" d="M68.420000,71.260000C68.420000,71.260000,63,62,67,59.370000C71,56.740000,77,61.540000,77.380000,61.850000C77.380000,61.850000,83.630000,58.660000,89.780000,60.710000C90.110000,60.890000,95.530000,55.710000,99.780000,57.140000C104.030000,58.570000,99.780000,68.860000,99.780000,68.860000C99.780000,68.860000,100.540000,75.460000,103.030000,76.860000C103.210000,77.190000,101.030000,78.300000,100.240000,78.060000C100.974954,78.338956,101.740238,78.530277,102.520000,78.630000C103.299762,78.729723,93.990000,85.630000,84.750000,85.560000C75.510000,85.490000,69.920000,82.180000,69,81.500000C69.618789,81.250598,70.220140,80.959945,70.800000,80.630000C70.980000,80.540000,67.620000,80.170000,66.250000,78.630000C65.790000,78.170000,69.760000,75.630000,69.250000,72.950000C68.900000,71.520000,68.420000,71.260000,68.420000,71.260000Z" fill="rgb(163,216,242)" stroke="none" stroke-width="1"/></g><g id="e41trkycj4pl138" opacity="0.7"><path id="e41trkycj4pl139" d="M70.510000,68.180000C70.510000,68.180000,72.310000,64.590000,74.380000,63.810000C74.380000,63.640000,69.830000,60.810000,68.590000,62.080000C67.350000,63.350000,70.510000,68.180000,70.510000,68.180000Z" fill="rgb(255,255,255)" stroke="none" stroke-width="1"/></g><g id="e41trkycj4pl140" opacity="0.7"><path id="e41trkycj4pl141" d="M92.510000,62.820000C92.510000,62.820000,96.360000,63.960000,97.510000,65.890000C97.640000,65.890000,99.640000,60.890000,98.190000,59.890000C96.740000,58.890000,92.510000,62.820000,92.510000,62.820000Z" fill="rgb(255,255,255)" stroke="none" stroke-width="1"/></g><g id="e41trkycj4pl142"><g id="e41trkycj4pl143"><path id="e41trkycj4pl144" d="M85.530000,74.850000L85,74.850000C84.746155,74.781047,84.498604,74.690724,84.260000,74.580000C83.385094,75.100781,82.270936,74.978346,81.530000,74.280000C81.231766,74.059086,81.169086,73.638234,81.390000,73.340000C81.610914,73.041766,82.031766,72.979086,82.330000,73.200000L82.420000,73.280000L82.420000,73.280000C82.797506,73.611646,83.362494,73.611646,83.740000,73.280000C83.907341,73.119601,84.148332,73.062222,84.370000,73.130000C84.464746,73.157898,84.550798,73.209529,84.620000,73.280000C84.740000,73.360000,85.530000,73.800000,85.950000,73.360000C86.175693,73.073587,86.588997,73.020257,86.880000,73.240000C87.157625,73.457716,87.210883,73.857150,87,74.140000L87,74.140000C86.642296,74.579481,86.095797,74.821130,85.530000,74.790000Z" fill="rgb(76,84,90)" stroke="none" stroke-width="1"/></g></g><g id="e41trkycj4pl145"><circle id="e41trkycj4pl146" r="1.280000" transform="matrix(1 0 0 1 75.70999999999999 70.45000000000000)" fill="rgb(76,84,90)" stroke="none" stroke-width="1"/></g><g id="e41trkycj4pl147"><circle id="e41trkycj4pl148" r="1.280000" transform="matrix(1 0 0 1 92.15000000000001 70.45000000000000)" fill="rgb(76,84,90)" stroke="none" stroke-width="1"/></g><g id="e41trkycj4pl149"><g id="e41trkycj4pl150"><path id="e41trkycj4pl151" d="M65.940000,78.400000C65.779677,78.400169,65.641021,78.288318,65.607264,78.131589C65.573507,77.974860,65.653823,77.815847,65.800000,77.750000C67.049333,77.174380,68.439609,76.976265,69.800000,77.180000C69.985880,77.210756,70.114060,77.383135,70.090000,77.570000C70.050299,77.749048,69.882343,77.869632,69.700000,77.850000C68.481492,77.669622,67.236837,77.850410,66.120000,78.370000C66.065033,78.399820,66.001667,78.410381,65.940000,78.400000Z" fill="rgb(112,112,112)" stroke="none" stroke-width="1"/></g><g id="e41trkycj4pl152"><path id="e41trkycj4pl153" d="M104,78.340000L103.860000,78.340000C102.740858,77.839896,101.499361,77.679927,100.290000,77.880000C100.100907,77.904519,99.925493,77.777344,99.890000,77.590000C99.866285,77.405288,99.995578,77.235870,100.180000,77.210000C101.534494,76.983970,102.925555,77.161330,104.180000,77.720000C104.349604,77.793378,104.429545,77.988788,104.360000,78.160000C104.303124,78.277679,104.180397,78.348940,104.050000,78.340000Z" fill="rgb(112,112,112)" stroke="none" stroke-width="1"/></g><g id="e41trkycj4pl154"><path id="e41trkycj4pl155" d="M66.620000,81C66.475476,80.997212,66.348514,80.903347,66.303479,80.765990C66.258444,80.628634,66.305182,80.477818,66.420000,80.390000C67.508227,79.571845,68.811423,79.088793,70.170000,79C70.291470,78.989282,70.409431,79.044182,70.479449,79.144019C70.549466,79.243857,70.560902,79.373464,70.509449,79.484019C70.457996,79.594575,70.351470,79.669282,70.230000,79.680000C68.998345,79.767440,67.816374,80.200714,66.820000,80.930000C66.763625,80.976101,66.692819,81.000883,66.620000,81Z" fill="rgb(112,112,112)" stroke="none" stroke-width="1"/></g><g id="e41trkycj4pl156"><path id="e41trkycj4pl157" d="M103.370000,81C103.297935,80.996664,103.228417,80.972332,103.170000,80.930000C102.172855,80.202155,100.991312,79.769038,99.760000,79.680000C99.570543,79.664054,99.428466,79.499777,99.440000,79.310000C99.445146,79.222420,99.484955,79.140493,99.550630,79.082324C99.616305,79.024155,99.702439,78.994532,99.790000,79L99.790000,79C101.143545,79.097966,102.441020,79.580183,103.530000,80.390000C103.602986,80.442015,103.651676,80.521478,103.664879,80.610124C103.678081,80.698771,103.654661,80.788974,103.600000,80.860000C103.539345,80.949187,103.437843,81.001818,103.330000,81Z" fill="rgb(112,112,112)" stroke="none" stroke-width="1"/></g></g><g id="e41trkycj4pl158"><g id="e41trkycj4pl159"><path id="e41trkycj4pl160" d="M83.750000,61.540000C83.463965,61.542829,83.220133,61.333220,83.180000,61.050000C83.110000,60.470000,82.710000,58.710000,81.880000,58.250000C81.745729,58.180045,81.645505,58.058704,81.602173,57.913637C81.558841,57.768569,81.576094,57.612137,81.650000,57.480000L81.650000,57.480000C81.810474,57.211962,82.149771,57.111913,82.430000,57.250000C83.910000,58.080000,84.270000,60.660000,84.300000,60.900000C84.341396,61.212034,84.122028,61.498556,83.810000,61.540000Z" fill="rgb(128,75,51)" stroke="none" stroke-width="1"/></g><path id="e41trkycj4pl161" d="M78.610000,56.570000C77.990000,57.430000,80.270000,59.260000,82.020000,58.700000C83.770000,58.140000,82.020000,56.170000,81.320000,55.870000C80.360031,55.497908,79.269681,55.779548,78.610000,56.570000Z" fill="rgb(108,206,157)" stroke="none" stroke-width="1"/><g id="e41trkycj4pl162"><path id="e41trkycj4pl163" d="M86.740000,56.310000C87.420000,57.090000,85.430000,59.210000,83.610000,58.840000C81.790000,58.470000,83.260000,56.340000,83.960000,55.940000C84.872063,55.465267,85.983855,55.613240,86.740000,56.310000Z" fill="rgb(108,206,157)" stroke="none" stroke-width="1"/></g></g></g></g></g><path id="e41trkycj4pl164" d="M81.410000,93.270000C82.730000,93.270000,83.810000,94.810000,83.810000,96.710000C83.810000,98.610000,82.730000,98.840000,81.410000,98.840000C80.090000,98.840000,79,98.600000,79,96.710000C79,94.820000,80.090000,93.270000,81.410000,93.270000Z" fill="rgb(163,216,242)" stroke="none" stroke-width="1"/><path id="e41trkycj4pl165" d="M94.140000,93.270000C95.460000,93.270000,96.530000,94.810000,96.530000,96.710000C96.530000,98.610000,95.460000,98.840000,94.140000,98.840000C92.820000,98.840000,91.740000,98.600000,91.740000,96.710000C91.740000,94.820000,92.810000,93.270000,94.140000,93.270000Z" fill="rgb(163,216,242)" stroke="none" stroke-width="1"/></g></svg>