<svg xmlns="http://www.w3.org/2000/svg" xmlns:xlink="http://www.w3.org/1999/xlink" width="100" height="25" viewBox="0 0 100 25">
    <defs>
        <path id="a" d="M.238.115h18.395v18.218H.238z"/>
        <path id="c" d="M.162.065H9V8.47H.162z"/>
    </defs>
    <g fill="none" fill-rule="evenodd">
        <g transform="translate(17.667 6.667)">
            <mask id="b" fill="#fff">
                <use xlink:href="#a"/>
            </mask>
            <path fill="#181A1C" d="M3.996 9.157c0 1.83.488 3.276 1.465 4.34 1.002 1.078 2.324 1.617 3.965 1.617 1.653 0 2.975-.533 3.965-1.597.989-1.065 1.484-2.487 1.484-4.266 0-1.778-.495-3.2-1.484-4.265C12.388 3.91 11.067 3.37 9.426 3.37c-1.616 0-2.925.54-3.927 1.616-1.003 1.077-1.503 2.468-1.503 4.171M.238 9.091c0-2.49.89-4.609 2.673-6.356C4.693.99 6.865.115 9.426.115c2.573 0 4.757.88 6.551 2.638 1.77 1.76 2.656 3.92 2.656 6.48 0 2.585-.891 4.751-2.673 6.498-1.795 1.735-3.996 2.602-6.604 2.602-2.585 0-4.751-.885-6.498-2.655C1.111 13.93.238 11.735.238 9.09" mask="url(#b)"/>
        </g>
        <path fill="#181A1C" d="M38.357 10.853h4.558v13.3c0 .188.152.341.34.341h3.077a.34.34 0 0 0 .34-.34V10.852h3.271a.34.34 0 0 0 .34-.341V7.629a.34.34 0 0 0-.34-.341H38.357a.34.34 0 0 0-.341.34v2.884c0 .188.153.34.34.34M65.209 10.853H60.65v13.3a.34.34 0 0 1-.34.341h-3.078a.34.34 0 0 1-.34-.34V10.852h-3.27a.34.34 0 0 1-.341-.341V7.629a.34.34 0 0 1 .34-.341H65.21a.34.34 0 0 1 .34.34v2.884a.34.34 0 0 1-.34.34M70.648 15.919c0 1.829.488 3.275 1.465 4.34 1.002 1.077 2.324 1.616 3.965 1.616 1.653 0 2.975-.532 3.964-1.597.99-1.065 1.485-2.487 1.485-4.265 0-1.78-.495-3.2-1.485-4.266-1.002-1.077-2.323-1.616-3.964-1.616-1.616 0-2.925.539-3.927 1.616-1.003 1.078-1.503 2.468-1.503 4.172m10.991-8.631h3.077a.34.34 0 0 1 .341.34v16.525a.34.34 0 0 1-.34.34h-3.078a.34.34 0 0 1-.34-.34v-1.455C79.658 24.233 77.645 25 75.757 25c-2.384 0-4.615-.861-6.173-2.585-1.547-1.758-2.499-3.954-2.499-6.586 0-2.585.931-4.739 2.478-6.462 1.546-1.723 3.762-2.585 6.088-2.585 2.006 0 4.054.826 5.648 2.478V7.63a.34.34 0 0 1 .34-.341M10.861 24.153v-5.446L17.91 7.813a.34.34 0 0 0-.286-.525h-3.518a.341.341 0 0 0-.288.16l-4.835 7.725-4.834-7.725a.341.341 0 0 0-.289-.16H.341a.34.34 0 0 0-.286.525l7.048 10.894v5.446c0 .188.153.341.341.341h3.077a.34.34 0 0 0 .34-.34"/>
        <path fill="#59BDEC" d="M92.798 6.947c0 2.365-.592 4.594-1.636 6.548-.037.058-.072.119-.109.179.037-.06.072-.12.11-.18a10.2 10.2 0 0 1 8.58-4.692c-2.527 0-4.899-.675-6.945-1.855"/>
        <g transform="translate(91 .333)">
            <mask id="d" fill="#fff">
                <use xlink:href="#c"/>
            </mask>
            <path fill="#1DADE5" d="M8.758 4.758h-.015A10.2 10.2 0 0 1 .163.065a13.858 13.858 0 0 1 1.635 6.548A13.863 13.863 0 0 0 8.743 8.47h.015A7.201 7.201 0 0 0 9 6.613c0-.641-.084-1.263-.242-1.855" mask="url(#d)"/>
        </g>
        <path fill="#009EDD" d="M90.919 0c.078.135.16.268.243.399a13.854 13.854 0 0 1 1.636 6.548c0 2.365-.592 4.594-1.636 6.548-.084.13-.165.264-.243.398a7.187 7.187 0 0 1-3.223-1.877 10.135 10.135 0 0 0 1.35-5.07c0-1.843-.491-3.574-1.35-5.068A7.187 7.187 0 0 1 90.919 0"/>
    </g>
</svg>
